<?xml version="1.0" encoding="iso-8859-1"?>
<!-- Generator: Adobe Illustrator 19.0.0, SVG Export Plug-In . SVG Version: 6.00 Build 0)  -->
<svg version="1.1" id="Layer_1" xmlns="http://www.w3.org/2000/svg" xmlns:xlink="http://www.w3.org/1999/xlink" x="0px" y="0px"
	 viewBox="0 0 512 512" style="enable-background:new 0 0 512 512;" xml:space="preserve">
<g>
	<g>
		<path d="M256,0C114.844,0,0,114.844,0,256s114.844,256,256,256s256-114.844,256-256S397.156,0,256,0z M488.331,224.708
			c-13.906,22.245-31.16,38.313-58.904,54.333c-51.931,29.984-119.801,22.059-153.536-14.546
			C335.392,252.591,384,189.021,384,117.333c0-24.835-3.131-44.77-9.522-63.553C435.297,89.555,478.552,151.824,488.331,224.708z
			 M256,21.333c31.497,0,61.518,6.333,88.986,17.638c12.378,23.234,17.681,46.24,17.681,78.362
			c0,60.03-40.854,115.113-89.507,125.94c8.337-24.855,7.716-53.863-2.441-82.409c-12.573-35.333-38.385-66.333-70.813-85.052
			c-21.539-12.438-40.389-19.697-59.889-23.548C174.271,32.686,213.801,21.333,256,21.333z M112.882,70.449
			c26.154,0.944,48.665,7.852,76.358,23.842c28.104,16.229,50.479,43.094,61.385,73.729c8.288,23.294,9.022,46.622,2.839,66.566
			C213.41,188.96,133.99,178.624,71.906,214.479c-21.634,12.488-37.397,25.236-50.51,40.279
			C21.79,179.77,57.63,113.165,112.882,70.449z M23.669,287.292c13.906-22.245,31.16-38.313,58.904-54.333
			c51.94-29.993,119.805-22.057,153.538,14.546C176.609,259.408,128,322.979,128,394.667c0,24.835,3.132,44.77,9.522,63.553
			C76.703,422.445,33.448,360.176,23.669,287.292z M256,490.667c-31.497,0-61.518-6.333-88.986-17.638
			c-12.378-23.234-17.681-46.24-17.681-78.362c0-60.03,40.854-115.113,89.507-125.94c-8.337,24.855-7.716,53.863,2.441,82.409
			c12.573,35.333,38.385,66.333,70.813,85.052c21.539,12.438,40.389,19.697,59.889,23.548
			C337.729,479.314,298.199,490.667,256,490.667z M399.119,441.551c-26.154-0.944-48.665-7.852-76.358-23.842
			c-28.104-16.229-50.479-43.094-61.385-73.729c-8.293-23.31-9.021-46.652-2.823-66.604c23.689,26.995,61.036,41.75,100.583,41.75
			c27.313,0,55.594-6.958,80.958-21.604c21.634-12.488,37.396-25.236,50.51-40.277C490.21,332.232,454.37,398.835,399.119,441.551z"
			/>
	</g>
</g>
<g>
</g>
<g>
</g>
<g>
</g>
<g>
</g>
<g>
</g>
<g>
</g>
<g>
</g>
<g>
</g>
<g>
</g>
<g>
</g>
<g>
</g>
<g>
</g>
<g>
</g>
<g>
</g>
<g>
</g>
</svg>
